<svg xmlns="http://www.w3.org/2000/svg" fill-rule="evenodd" stroke-linejoin="round" stroke-miterlimit="2" clip-rule="evenodd" viewBox="0 0 24 24">
  <path fill="#0694a2" d="M23.9999405 5.99998305C23.9999405 2.68848115 21.31140326 0 17.99995537 0H5.99998513C2.68853724 0 0 2.68848115 0 5.99998305v11.9999661c0 3.3115019 2.68853724 5.99998305 5.99998513 5.99998305h11.99997025c3.31144788 0 5.99998512-2.68848115 5.99998512-5.99998305V5.99998305z"/>
  <g fill="#fff" fill-rule="nonzero">
    <path d="M6.019854 19.4930508V4.0659212h6.0826382c1.7335006 0 3.2413384.5538996 4.4004246 1.6309266 1.128314 1.0872844 1.692471 2.4207464 1.692471 3.949099 0 1.53861-.5744144 2.872072-1.7027284 3.9285842-1.179601 1.077027-2.718211 1.6206692-4.4824838 1.6206692H9.7843198v4.2978506H6.019854zm6.0826382-11.6831786H9.9279234v3.6516344l2.1745688.0102574c1.1077992 0 2.1848262-.7590476 2.1848262-1.8258172 0-1.0565122-1.077027-1.8360746-2.1848262-1.8360746zM16.5542038 18.2313906c0-.9334234.769305-1.7129858 1.7129858-1.7129858.923166 0 1.7129858.7795624 1.7129858 1.7129858s-.7795624 1.7027284-1.7129858 1.7027284c-.9436808 0-1.7129858-.7590476-1.7129858-1.7027284z"/>
  </g>
</svg>